<svg width="28" height="28" viewBox="0 0 28 28" fill="none" xmlns="http://www.w3.org/2000/svg">
<g id="material-symbols:today-outline">
<path id="Vector" d="M10.5 19.25C9.68333 19.25 8.99306 18.9681 8.42917 18.4042C7.86528 17.8403 7.58333 17.15 7.58333 16.3333C7.58333 15.5167 7.86528 14.8264 8.42917 14.2625C8.99306 13.6986 9.68333 13.4167 10.5 13.4167C11.3167 13.4167 12.0069 13.6986 12.5708 14.2625C13.1347 14.8264 13.4167 15.5167 13.4167 16.3333C13.4167 17.15 13.1347 17.8403 12.5708 18.4042C12.0069 18.9681 11.3167 19.25 10.5 19.25ZM5.83333 25.6667C5.19167 25.6667 4.64256 25.4384 4.186 24.9818C3.72944 24.5253 3.50078 23.9758 3.5 23.3333V7C3.5 6.35833 3.72867 5.80922 4.186 5.35267C4.64333 4.89611 5.19244 4.66744 5.83333 4.66667H7V2.33333H9.33333V4.66667H18.6667V2.33333H21V4.66667H22.1667C22.8083 4.66667 23.3578 4.89533 23.8152 5.35267C24.2725 5.81 24.5008 6.35911 24.5 7V23.3333C24.5 23.975 24.2717 24.5245 23.8152 24.9818C23.3586 25.4392 22.8091 25.6674 22.1667 25.6667H5.83333ZM5.83333 23.3333H22.1667V11.6667H5.83333V23.3333ZM5.83333 9.33333H22.1667V7H5.83333V9.33333Z" fill="#FFFEFC"/>
</g>
</svg>
