<svg width="28" height="28" viewBox="0 0 28 28" fill="none" xmlns="http://www.w3.org/2000/svg">
<g id="solar:history-outline">
<path id="Vector" fill-rule="evenodd" clip-rule="evenodd" d="M5.92552 5.91383C10.353 1.49216 17.5513 1.53883 22.0057 5.99433C26.4624 10.451 26.509 17.6528 22.0804 22.0803C17.6529 26.5078 10.451 26.4623 5.99435 22.0057C4.74077 20.7572 3.7936 19.2353 3.22722 17.5592C2.66084 15.8831 2.49065 14.0986 2.73002 12.3457C2.76142 12.1156 2.88293 11.9075 3.06781 11.767C3.25269 11.6265 3.4858 11.5653 3.71585 11.5967C3.9459 11.6281 4.15406 11.7496 4.29452 11.9345C4.43499 12.1193 4.49626 12.3524 4.46485 12.5825C4.26166 14.068 4.40571 15.5804 4.88567 17.0009C5.36564 18.4213 6.16845 19.7112 7.23102 20.769C11.0169 24.5537 17.1103 24.5758 20.8437 20.8437C24.5758 17.1103 24.5537 11.0168 20.769 7.231C16.9855 3.44866 10.8955 3.42417 7.16218 7.15167L8.03485 7.15516C8.14976 7.1557 8.26343 7.17886 8.36939 7.22333C8.47534 7.2678 8.5715 7.3327 8.65237 7.41433C8.73324 7.49596 8.79725 7.59272 8.84072 7.69909C8.8842 7.80545 8.9063 7.91934 8.90577 8.03425C8.90523 8.14915 8.88207 8.26283 8.8376 8.36879C8.79313 8.47474 8.72823 8.5709 8.6466 8.65177C8.56497 8.73264 8.46821 8.79664 8.36184 8.84012C8.25548 8.8836 8.14159 8.9057 8.02668 8.90516L5.05635 8.89116C4.8257 8.88994 4.60486 8.79769 4.44188 8.63448C4.27889 8.47128 4.18694 8.25032 4.18602 8.01966L4.17085 5.05166C4.17024 4.93676 4.19226 4.82286 4.23567 4.71646C4.27908 4.61007 4.34301 4.51326 4.42383 4.43158C4.50465 4.3499 4.60076 4.28493 4.70669 4.24039C4.81262 4.19585 4.92628 4.17261 5.04118 4.172C5.15609 4.17139 5.26999 4.19341 5.37639 4.23682C5.48278 4.28022 5.57958 4.34416 5.66127 4.42498C5.74295 4.5058 5.80792 4.60191 5.85246 4.70784C5.897 4.81376 5.92024 4.92742 5.92085 5.04233L5.92552 5.91383ZM13.9988 8.45716C14.2309 8.45716 14.4535 8.54935 14.6176 8.71345C14.7817 8.87754 14.8738 9.1001 14.8738 9.33216V13.6372L17.535 16.2972C17.6186 16.3778 17.6853 16.4744 17.7312 16.5811C17.7771 16.6878 17.8013 16.8026 17.8024 16.9188C17.8035 17.035 17.7814 17.1502 17.7374 17.2578C17.6935 17.3653 17.6286 17.4631 17.5464 17.5453C17.4643 17.6274 17.3667 17.6925 17.2592 17.7365C17.1516 17.7806 17.0364 17.8027 16.9202 17.8018C16.8041 17.8008 16.6892 17.7768 16.5825 17.731C16.4757 17.6851 16.3791 17.6185 16.2984 17.535L13.125 14.3617V9.33333C13.125 9.10127 13.2172 8.87871 13.3813 8.71461C13.5454 8.55052 13.768 8.45833 14 8.45833" fill="#FFFEFC"/>
</g>
</svg>
