<svg width="50" height="50" viewBox="0 0 50 50" fill="none" xmlns="http://www.w3.org/2000/svg">
<g id="Frame 41045">
<circle id="Ellipse 25" cx="25.0027" cy="25.0026" r="21.4789" fill="#FEBD06"/>
<path id="Hair Back" fill-rule="evenodd" clip-rule="evenodd" d="M21.8633 35.2666C26.4843 35.2666 28.1649 29.7343 30.7903 26.6983C32.6686 24.5261 35.8744 25.1738 36.8233 22.1328C39.2095 14.486 32.823 9.10396 24.4914 9.10396C16.1599 9.10396 10.5422 13.8242 9.32923 20.9199C8.11625 28.0156 13.5317 35.2666 21.8633 35.2666Z" fill="#191847"/>
<path id="Intersect" fill-rule="evenodd" clip-rule="evenodd" d="M18.3159 45.4913L22.4623 30.7373C20.6913 28.5877 19.5113 25.979 19.7157 23.0664C20.3228 14.4136 32.3677 16.3171 34.7107 20.6843C37.0537 25.0515 36.7753 36.1291 33.7472 36.9097C32.6377 37.1957 30.3759 36.5752 27.9851 35.2485L30.291 45.8615C28.581 46.2998 26.7888 46.5328 24.9421 46.5328C22.6298 46.5328 20.4029 46.1675 18.3159 45.4913Z" fill="#F09B9B"/>
<path id="Hair" fill-rule="evenodd" clip-rule="evenodd" d="M20.12 15.2719C12.6872 22.5498 20.1484 30.2852 22.1928 30.2852C22.3251 29.2321 22.7297 28.2077 23.3223 27.233C22.9959 26.8226 22.8016 26.3074 22.8016 25.748C22.8016 24.4082 23.9161 23.3221 25.2909 23.3221C25.7351 23.3221 26.1521 23.4354 26.5131 23.6341C29.4898 21.1017 33.2148 19.3371 35.0665 18.9895C38.2941 18.3836 27.5528 7.99408 20.12 15.2719Z" fill="#191847"/>
<path id="Ellipse 28" d="M49.8512 25C49.8512 38.7249 38.7249 49.8512 25 49.8512C11.2751 49.8512 0.14881 38.7249 0.14881 25C0.14881 11.2751 11.2751 0.14881 25 0.14881C38.7249 0.14881 49.8512 11.2751 49.8512 25Z" stroke="black" stroke-opacity="0.1" stroke-width="0.297619"/>
</g>
</svg>
